<?xml version="1.0" encoding="utf-8"?>
<!-- Generator: Adobe Illustrator 27.5.0, SVG Export Plug-In . SVG Version: 6.00 Build 0)  -->
<svg version="1.1" id="Capa_1" xmlns="http://www.w3.org/2000/svg" xmlns:xlink="http://www.w3.org/1999/xlink" x="0px" y="0px"
	 viewBox="0 0 376.839 425.197" style="enable-background:new 0 0 376.839 425.197;" xml:space="preserve">
<rect x="0" y="0" style="fill:#6D6E71;" width="376.839" height="425.197"/>
<g>
	<g>
		<g>
			<path style="fill:#FFFFFF;" d="M151.643,56.666h-16.632c0.24,1.467,0.882,2.633,1.925,3.499c1.043,0.866,2.373,1.299,3.992,1.299
				c1.934,0,3.597-0.676,4.988-2.029l4.362,2.049c-1.088,1.542-2.39,2.683-3.907,3.423c-1.517,0.739-3.319,1.109-5.405,1.109
				c-3.237,0-5.873-1.021-7.908-3.063c-2.036-2.042-3.053-4.6-3.053-7.672c0-3.147,1.015-5.762,3.044-7.842
				c2.029-2.079,4.573-3.119,7.633-3.119c3.249,0,5.892,1.04,7.927,3.119c2.035,2.08,3.053,4.827,3.053,8.24L151.643,56.666z
				 M146.466,52.589c-0.342-1.15-1.017-2.086-2.023-2.807c-1.007-0.721-2.175-1.081-3.505-1.081c-1.443,0-2.71,0.404-3.799,1.214
				c-0.684,0.506-1.317,1.396-1.9,2.674H146.466z"/>
			<path style="fill:#FFFFFF;" d="M156.403,65.484V37.588h4.386c2.544,0,4.405,0.165,5.582,0.493
				c1.671,0.442,3.001,1.265,3.988,2.466c0.987,1.201,1.481,2.616,1.481,4.247c0,1.063-0.225,2.026-0.673,2.893
				c-0.449,0.866-1.179,1.679-2.19,2.437c1.694,0.797,2.933,1.792,3.717,2.987c0.784,1.194,1.176,2.607,1.176,4.238
				c0,1.568-0.405,2.996-1.215,4.286c-0.81,1.289-1.854,2.254-3.132,2.892c-1.278,0.639-3.044,0.958-5.297,0.958H156.403z
				 M161.713,42.651v5.879h1.161c1.295,0,2.256-0.271,2.884-0.815c0.628-0.543,0.942-1.283,0.942-2.219
				c0-0.872-0.298-1.564-0.895-2.076c-0.597-0.513-1.504-0.768-2.722-0.768H161.713z M161.713,53.271v7.149h1.331
				c2.206,0,3.692-0.278,4.459-0.834c0.767-0.557,1.151-1.366,1.151-2.428c0-1.201-0.45-2.149-1.351-2.845
				c-0.9-0.695-2.396-1.043-4.488-1.043H161.713z"/>
			<path style="fill:#FFFFFF;" d="M188.054,44.32c1.947,0,3.777,0.487,5.49,1.46c1.713,0.974,3.05,2.295,4.011,3.964
				c0.96,1.669,1.441,3.471,1.441,5.404c0,1.947-0.483,3.769-1.451,5.462c-0.967,1.694-2.285,3.018-3.954,3.974
				c-1.669,0.954-3.508,1.432-5.518,1.432c-2.958,0-5.484-1.053-7.576-3.158c-2.093-2.104-3.139-4.661-3.139-7.671
				c0-3.224,1.182-5.91,3.546-8.06C182.978,45.256,185.361,44.32,188.054,44.32z M188.14,49.194c-1.608,0-2.948,0.559-4.018,1.678
				c-1.07,1.119-1.605,2.551-1.605,4.296c0,1.795,0.529,3.249,1.587,4.361c1.057,1.113,2.396,1.669,4.018,1.669
				c1.621,0,2.97-0.563,4.046-1.688c1.076-1.125,1.615-2.572,1.615-4.343s-0.529-3.208-1.587-4.314
				C191.138,49.747,189.786,49.194,188.14,49.194z"/>
			<path style="fill:#FFFFFF;" d="M212.917,44.32c1.947,0,3.777,0.487,5.49,1.46c1.713,0.974,3.05,2.295,4.011,3.964
				c0.96,1.669,1.441,3.471,1.441,5.404c0,1.947-0.483,3.769-1.451,5.462c-0.967,1.694-2.285,3.018-3.954,3.974
				c-1.669,0.954-3.508,1.432-5.519,1.432c-2.958,0-5.484-1.053-7.576-3.158c-2.093-2.104-3.139-4.661-3.139-7.671
				c0-3.224,1.182-5.91,3.546-8.06C207.84,45.256,210.224,44.32,212.917,44.32z M213.002,49.194c-1.608,0-2.948,0.559-4.018,1.678
				c-1.07,1.119-1.605,2.551-1.605,4.296c0,1.795,0.529,3.249,1.586,4.361c1.057,1.113,2.396,1.669,4.018,1.669
				c1.621,0,2.97-0.563,4.046-1.688c1.076-1.125,1.615-2.572,1.615-4.343s-0.529-3.208-1.586-4.314
				C216,49.747,214.648,49.194,213.002,49.194z"/>
			<path style="fill:#FFFFFF;" d="M228.126,36.887h5.177v16.472l7.624-8.507h6.501l-8.888,9.889l9.951,10.744h-6.427l-8.762-9.51
				v9.51h-5.177V36.887z"/>
		</g>
		<g>
			<path style="fill:#FFFFFF;" d="M134.024,69.906h4.786v1.79h-2.964v1.75h2.964v1.764h-2.964v4.341h-1.822V69.906z"/>
			<path style="fill:#FFFFFF;" d="M140.567,69.906h1.945c1.065,0,1.824,0.095,2.276,0.285c0.452,0.19,0.816,0.506,1.09,0.947
				c0.275,0.441,0.413,0.964,0.413,1.567c0,0.634-0.152,1.164-0.456,1.59c-0.304,0.426-0.762,0.748-1.374,0.967l2.285,4.288h-2.007
				l-2.169-4.085h-0.168v4.085h-1.836V69.906z M142.403,73.676h0.575c0.583,0,0.986-0.076,1.205-0.229
				c0.22-0.153,0.33-0.408,0.33-0.764c0-0.21-0.054-0.394-0.163-0.549c-0.109-0.156-0.255-0.268-0.438-0.336
				c-0.183-0.067-0.518-0.102-1.007-0.102h-0.503V73.676z"/>
			<path style="fill:#FFFFFF;" d="M148.238,69.906h5.265v1.797h-3.442v1.743h3.442v1.764h-3.442v2.538h3.442v1.803h-5.265V69.906z"
				/>
			<path style="fill:#FFFFFF;" d="M155.22,69.906h5.265v1.797h-3.442v1.743h3.442v1.764h-3.442v2.538h3.442v1.803h-5.265V69.906z"/>
			<path style="fill:#FFFFFF;" d="M162.269,79.551v-9.644h1.999c1.442,0,2.489,0.116,3.141,0.348
				c0.935,0.328,1.666,0.896,2.193,1.704c0.527,0.81,0.79,1.772,0.79,2.892c0,0.966-0.209,1.816-0.626,2.551
				c-0.417,0.734-0.959,1.276-1.626,1.626c-0.667,0.35-1.601,0.524-2.803,0.524H162.269z M163.193,78.64h1.115
				c1.333,0,2.257-0.083,2.773-0.249c0.726-0.236,1.296-0.66,1.711-1.274c0.415-0.613,0.623-1.363,0.623-2.25
				c0-0.931-0.226-1.726-0.675-2.385c-0.451-0.659-1.078-1.111-1.882-1.355c-0.604-0.184-1.598-0.275-2.983-0.275h-0.682V78.64z"/>
			<path style="fill:#FFFFFF;" d="M176.854,69.664c1.46,0,2.683,0.487,3.667,1.462c0.984,0.975,1.476,2.175,1.476,3.6
				c0,1.411-0.491,2.609-1.473,3.593c-0.982,0.983-2.179,1.475-3.592,1.475c-1.43,0-2.638-0.489-3.622-1.468
				c-0.984-0.979-1.476-2.164-1.476-3.554c0-0.927,0.224-1.786,0.672-2.577c0.448-0.791,1.059-1.41,1.833-1.858
				C175.115,69.888,175.953,69.664,176.854,69.664z M176.896,70.602c-0.714,0-1.39,0.186-2.029,0.558
				c-0.639,0.372-1.138,0.873-1.497,1.502c-0.359,0.631-0.538,1.332-0.538,2.106c0,1.146,0.397,2.114,1.192,2.904
				c0.794,0.789,1.752,1.184,2.873,1.184c0.749,0,1.441-0.182,2.078-0.544c0.637-0.363,1.134-0.859,1.491-1.49
				c0.357-0.63,0.535-1.329,0.535-2.1c0-0.766-0.178-1.457-0.535-2.076c-0.357-0.619-0.859-1.114-1.507-1.486
				C178.311,70.787,177.623,70.602,176.896,70.602z"/>
			<path style="fill:#FFFFFF;" d="M183.387,69.906h0.99l1.97,6.95l2.765-6.95h0.2l2.732,6.95l2.004-6.95h0.982l-2.771,9.644h-0.179
				l-2.862-7.297l-2.917,7.297h-0.18L183.387,69.906z"/>
			<path style="fill:#FFFFFF;" d="M196.828,79.551v-9.644h0.21l6.419,7.393v-7.393h0.951v9.644h-0.216l-6.366-7.303v7.303H196.828z"
				/>
			<path style="fill:#FFFFFF;" d="M206.755,69.906h0.963v8.714h3.711v0.931h-4.674V69.906z"/>
			<path style="fill:#FFFFFF;" d="M217.55,69.664c1.46,0,2.683,0.487,3.667,1.462c0.984,0.975,1.476,2.175,1.476,3.6
				c0,1.411-0.491,2.609-1.473,3.593c-0.982,0.983-2.179,1.475-3.592,1.475c-1.43,0-2.638-0.489-3.622-1.468
				c-0.984-0.979-1.476-2.164-1.476-3.554c0-0.927,0.224-1.786,0.672-2.577c0.448-0.791,1.059-1.41,1.833-1.858
				C215.811,69.888,216.648,69.664,217.55,69.664z M217.592,70.602c-0.714,0-1.39,0.186-2.029,0.558
				c-0.639,0.372-1.138,0.873-1.497,1.502c-0.359,0.631-0.538,1.332-0.538,2.106c0,1.146,0.397,2.114,1.192,2.904
				c0.794,0.789,1.752,1.184,2.873,1.184c0.749,0,1.441-0.182,2.078-0.544c0.637-0.363,1.134-0.859,1.491-1.49
				c0.357-0.63,0.535-1.329,0.535-2.1c0-0.766-0.178-1.457-0.535-2.076c-0.357-0.619-0.859-1.114-1.507-1.486
				C219.006,70.787,218.319,70.602,217.592,70.602z"/>
			<path style="fill:#FFFFFF;" d="M228.568,69.906l4.498,9.644h-1.041l-1.517-3.173h-4.155l-1.503,3.173h-1.075l4.557-9.644H228.568
				z M228.446,71.955l-1.652,3.491h3.297L228.446,71.955z"/>
			<path style="fill:#FFFFFF;" d="M234.561,79.551v-9.644h2c1.442,0,2.489,0.116,3.141,0.348c0.935,0.328,1.666,0.896,2.193,1.704
				c0.527,0.81,0.79,1.772,0.79,2.892c0,0.966-0.208,1.816-0.626,2.551c-0.417,0.734-0.959,1.276-1.626,1.626
				c-0.667,0.35-1.601,0.524-2.803,0.524H234.561z M235.485,78.64h1.115c1.333,0,2.257-0.083,2.773-0.249
				c0.726-0.236,1.296-0.66,1.711-1.274c0.415-0.613,0.623-1.363,0.623-2.25c0-0.931-0.226-1.726-0.675-2.385
				c-0.451-0.659-1.078-1.111-1.882-1.355c-0.604-0.184-1.598-0.275-2.983-0.275h-0.682V78.64z"/>
		</g>
	</g>
	<g>
		<g>
			
				<linearGradient id="SVGID_1_" gradientUnits="userSpaceOnUse" x1="-2028.4873" y1="-627.6695" x2="-2276.9814" y2="-627.6695" gradientTransform="matrix(0 1 -1 0 -406.4141 2392.5381)">
				<stop  offset="0" style="stop-color:#45484A"/>
				<stop  offset="0.0612" style="stop-color:#616364"/>
				<stop  offset="0.1451" style="stop-color:#878788"/>
				<stop  offset="0.2301" style="stop-color:#A9A9AA"/>
				<stop  offset="0.3157" style="stop-color:#C4C4C4"/>
				<stop  offset="0.4022" style="stop-color:#D6D7D6"/>
				<stop  offset="0.4909" style="stop-color:#DEDFDE"/>
				<stop  offset="0.5725" style="stop-color:#D5D6D5"/>
				<stop  offset="0.6644" style="stop-color:#C0C1C0"/>
				<stop  offset="0.7615" style="stop-color:#A2A2A3"/>
				<stop  offset="0.862" style="stop-color:#7C7C7E"/>
				<stop  offset="0.9642" style="stop-color:#545557"/>
				<stop  offset="1" style="stop-color:#45484A"/>
			</linearGradient>
			<path style="fill:url(#SVGID_1_);" d="M150.511,364.051c-7.061,0-12.789-3.902-12.789-10.896v-225.95
				c0.003-6.993,4.699-11.648,11.761-11.648h141.493c7.065,0,13.816,4.655,13.814,11.648v225.95c0,6.993-5.723,10.896-12.783,10.896
				H150.511z"/>
			
				<linearGradient id="SVGID_00000028292685925246905500000012590127418143067028_" gradientUnits="userSpaceOnUse" x1="-2045.7354" y1="-720.5784" x2="-2260.0444" y2="-534.2824" gradientTransform="matrix(0 1 -1 0 -406.4141 2392.5381)">
				<stop  offset="0" style="stop-color:#45484A"/>
				<stop  offset="0.0462" style="stop-color:#58595B"/>
				<stop  offset="0.133" style="stop-color:#787A7B"/>
				<stop  offset="0.221" style="stop-color:#969798"/>
				<stop  offset="0.3096" style="stop-color:#ADAEAE"/>
				<stop  offset="0.3991" style="stop-color:#BBBDBD"/>
				<stop  offset="0.4909" style="stop-color:#C1C3C3"/>
				<stop  offset="0.5757" style="stop-color:#BABCBC"/>
				<stop  offset="0.6713" style="stop-color:#A9ABAB"/>
				<stop  offset="0.7722" style="stop-color:#8F9192"/>
				<stop  offset="0.8767" style="stop-color:#6F7071"/>
				<stop  offset="0.983" style="stop-color:#4B4E4F"/>
				<stop  offset="1" style="stop-color:#45484A"/>
			</linearGradient>
			<path style="fill:url(#SVGID_00000028292685925246905500000012590127418143067028_);" d="M151.689,362.143
				c-6.945,0-12.573-3.854-12.573-10.76V128.324c0-6.904,4.617-11.501,11.562-11.501h139.135c6.945,0,13.586,4.597,13.586,11.501
				v223.059c0,6.906-5.631,10.76-12.573,10.76H151.689z"/>
			
				<linearGradient id="SVGID_00000000205349205132041940000015789904921562208947_" gradientUnits="userSpaceOnUse" x1="-2032.5664" y1="-627.671" x2="-2273.6689" y2="-627.671" gradientTransform="matrix(0 1 -1 0 -406.4141 2392.5381)">
				<stop  offset="0" style="stop-color:#0D1115"/>
				<stop  offset="0.1695" style="stop-color:#17171A"/>
				<stop  offset="0.5744" style="stop-color:#1F1E1F"/>
				<stop  offset="0.8608" style="stop-color:#100F10"/>
				<stop  offset="1" style="stop-color:#000000"/>
			</linearGradient>
			<path style="fill:url(#SVGID_00000000205349205132041940000015789904921562208947_);" d="M153.048,359.972
				c-6.716,0-12.158-5.442-12.158-12.155V131.023c0.001-6.711,5.442-12.153,12.158-12.153H289.47
				c6.714,0,12.154,5.442,12.154,12.153v216.794c0,6.713-5.441,12.155-12.154,12.155H153.048z"/>
			<path d="M289.47,360.51H153.048c-7.002,0-12.696-5.692-12.696-12.693V131.023c0.003-6.999,5.696-12.692,12.696-12.692H289.47
				c3.392,0,6.578,1.321,8.975,3.719c2.397,2.396,3.719,5.583,3.717,8.974v216.794C302.161,354.817,296.468,360.51,289.47,360.51z
				 M153.048,119.406c-6.408,0-11.617,5.211-11.62,11.616v216.794c0,6.408,5.212,11.618,11.62,11.618H289.47
				c6.405,0,11.617-5.21,11.617-11.618V131.023c0-3.103-1.209-6.019-3.403-8.213c-2.194-2.194-5.109-3.403-8.214-3.403H153.048z"/>
			<rect x="152.371" y="137.762" style="fill:#FFFFFF;stroke:#000000;stroke-miterlimit:10;" width="137.77" height="203.317"/>
			
				<linearGradient id="SVGID_00000142173116876552988630000013764223284052735150_" gradientUnits="userSpaceOnUse" x1="222.8389" y1="129.0176" x2="222.8389" y2="126.0176">
				<stop  offset="0" style="stop-color:#45484A"/>
				<stop  offset="0.1668" style="stop-color:#3B3E40"/>
				<stop  offset="0.7264" style="stop-color:#1C2023"/>
				<stop  offset="1" style="stop-color:#0D1115"/>
			</linearGradient>
			<path style="fill:url(#SVGID_00000142173116876552988630000013764223284052735150_);" d="M234.839,127.759
				c0,0.695-0.563,1.259-1.259,1.259h-21.482c-0.695,0-1.259-0.563-1.259-1.259v-0.482c0-0.695,0.564-1.259,1.259-1.259h21.482
				c0.695,0,1.259,0.563,1.259,1.259V127.759z"/>
			<g>
				<path style="fill:#FFFFFF;" d="M222.489,347.436v0.382c1.501,0.519,2.589,1.929,2.589,3.599c0,2.107-1.715,3.822-3.822,3.822
					c-2.105,0-3.818-1.716-3.818-3.822c0-1.67,1.086-3.08,2.586-3.599v-0.382c-1.705,0.529-2.957,2.101-2.957,3.98
					c0,2.311,1.878,4.191,4.189,4.191c2.31,0,4.191-1.881,4.191-4.191C225.447,349.536,224.194,347.965,222.489,347.436z"/>
				<rect x="221.051" y="346.276" style="fill:#FFFFFF;" width="0.41" height="5.007"/>
			</g>
			<path style="fill:#FFFFFF;stroke:#8E9192;stroke-miterlimit:10;" d="M152.75,340.738c0,0-56.341-23.834-108.549-9.835v-203.16
				c52.209-13.995,108.549,10.396,108.549,10.396V340.738z"/>
			<g>
				<rect x="160.725" y="242.252" style="fill:#C1C3C3;" width="18.286" height="3.026"/>
				<rect x="160.725" y="156.497" style="fill:#C1C3C3;" width="118.541" height="3.027"/>
				<rect x="160.725" y="165.072" style="fill:#C1C3C3;" width="118.541" height="3.027"/>
				<rect x="160.725" y="173.648" style="fill:#C1C3C3;" width="118.541" height="3.026"/>
				<rect x="160.725" y="182.223" style="fill:#C1C3C3;" width="118.541" height="3.027"/>
				<rect x="160.725" y="190.797" style="fill:#C1C3C3;" width="60.657" height="3.027"/>
				<rect x="160.725" y="207.95" style="fill:#C1C3C3;" width="118.541" height="3.024"/>
				<rect x="160.725" y="216.525" style="fill:#C1C3C3;" width="118.541" height="3.028"/>
				<rect x="160.725" y="225.103" style="fill:#C1C3C3;" width="118.541" height="3.023"/>
				<rect x="160.725" y="233.678" style="fill:#C1C3C3;" width="118.541" height="3.025"/>
				<rect x="160.725" y="259.404" style="fill:#C1C3C3;" width="118.541" height="3.025"/>
				<rect x="160.725" y="267.978" style="fill:#C1C3C3;" width="118.541" height="3.028"/>
				<rect x="160.725" y="276.554" style="fill:#C1C3C3;" width="118.541" height="3.024"/>
				<rect x="160.725" y="285.129" style="fill:#C1C3C3;" width="118.541" height="3.027"/>
				<rect x="160.725" y="293.704" style="fill:#C1C3C3;" width="118.541" height="3.027"/>
				<rect x="160.725" y="302.279" style="fill:#C1C3C3;" width="118.541" height="3.027"/>
				<rect x="160.725" y="310.857" style="fill:#C1C3C3;" width="118.541" height="3.025"/>
				<rect x="160.725" y="319.433" style="fill:#C1C3C3;" width="92.436" height="3.023"/>
			</g>
			<g>
				<path style="fill:#C1C3C3;" d="M144.575,158.846c-48.703-20.003-90.158-8.764-90.571-8.646l-0.815-2.915
					c0.423-0.118,42.882-11.633,92.538,8.758L144.575,158.846z"/>
				<path style="fill:#C1C3C3;" d="M144.575,167.922c-48.703-19.997-90.158-8.76-90.571-8.644l-0.815-2.914
					c0.423-0.116,42.882-11.632,92.538,8.759L144.575,167.922z"/>
				<path style="fill:#C1C3C3;" d="M144.575,177.002c-48.703-19.999-90.158-8.762-90.571-8.645l-0.815-2.91
					c0.423-0.12,42.882-11.636,92.538,8.758L144.575,177.002z"/>
				<path style="fill:#C1C3C3;" d="M144.575,204.242c-48.703-20.001-90.158-8.76-90.571-8.644l-0.815-2.915
					c0.423-0.116,42.882-11.631,92.538,8.76L144.575,204.242z"/>
				<path style="fill:#C1C3C3;" d="M144.575,213.32c-48.703-19.999-90.158-8.76-90.571-8.643l-0.815-2.914
					c0.423-0.119,42.882-11.632,92.538,8.761L144.575,213.32z"/>
				<path style="fill:#C1C3C3;" d="M144.575,222.402c-48.703-20-90.158-8.764-90.571-8.646l-0.815-2.917
					c0.423-0.114,42.882-11.631,92.538,8.762L144.575,222.402z"/>
				<path style="fill:#C1C3C3;" d="M144.575,231.48c-48.703-20-90.158-8.761-90.571-8.644l-0.815-2.915
					c0.423-0.118,42.882-11.633,92.538,8.76L144.575,231.48z"/>
				<path style="fill:#C1C3C3;" d="M144.575,258.721c-48.703-20.002-90.158-8.762-90.571-8.646l-0.815-2.913
					c0.423-0.118,42.882-11.634,92.538,8.76L144.575,258.721z"/>
				<path style="fill:#C1C3C3;" d="M144.575,267.799c-48.703-19.998-90.158-8.76-90.571-8.644l-0.815-2.913
					c0.423-0.12,42.882-11.633,92.538,8.758L144.575,267.799z"/>
				<path style="fill:#C1C3C3;" d="M144.575,276.881c-48.703-20-90.158-8.762-90.571-8.646l-0.815-2.912
					c0.423-0.12,42.882-11.635,92.538,8.758L144.575,276.881z"/>
				<path style="fill:#C1C3C3;" d="M144.575,285.959c-48.703-20-90.158-8.76-90.571-8.645l-0.815-2.912
					c0.423-0.118,42.882-11.635,92.538,8.757L144.575,285.959z"/>
				<path style="fill:#C1C3C3;" d="M144.575,295.039c-48.703-20-90.158-8.76-90.571-8.645l-0.815-2.914
					c0.423-0.116,42.882-11.632,92.538,8.759L144.575,295.039z"/>
				<path style="fill:#C1C3C3;" d="M144.575,304.117c-48.703-19.998-90.158-8.76-90.571-8.641l-0.815-2.916
					c0.423-0.12,42.882-11.633,92.538,8.757L144.575,304.117z"/>
				<path style="fill:#C1C3C3;" d="M144.575,313.2c-48.703-20.003-90.158-8.763-90.571-8.646l-0.815-2.916
					c0.423-0.118,42.882-11.633,92.538,8.76L144.575,313.2z"/>
				<path style="fill:#C1C3C3;" d="M103.977,172.384c-29.571-3.613-50.492,2.059-50.788,2.141l0.815,2.914
					c0.292-0.081,20.86-5.66,49.973-2.021C103.977,174.668,103.977,173.683,103.977,172.384z"/>
				<path style="fill:#C1C3C3;" d="M70.097,226.296c-10.462,0.958-16.747,2.662-16.908,2.708l0.815,2.915
					c0.155-0.048,6.015-1.636,15.824-2.574C69.436,228.394,69.394,227.337,70.097,226.296z"/>
				<path style="fill:#C1C3C3;" d="M110.535,309.518c-32.993-5.404-57.03,1.113-57.347,1.202l0.815,2.913
					c0.313-0.084,23.998-6.505,56.531-1.058V309.518z"/>
			</g>
		</g>
		<g>
			<polygon style="fill:#FFFFFF;" points="242.11,326.422 225.359,275.026 231.846,272.915 229.681,266.248 240.644,262.677 
				242.817,269.339 249.311,267.217 256.054,287.89 267.243,284.233 269.412,290.905 286.876,285.219 289.042,291.876 
				307.725,285.787 309.903,292.453 316.397,290.336 332.63,340.152 326.137,342.264 331.917,359.986 325.429,362.094 
				329.253,373.867 270.35,393.074 263.89,373.234 258.467,375.011 257.067,370.686 251.66,372.453 248.021,361.306 
				242.609,363.072 238.975,351.928 233.562,353.691 229.93,342.547 223.435,344.662 217.688,327.01 234.525,321.516 
				236.696,328.18 			"/>
			<g>
				<polygon points="269.124,327.963 258.23,294.547 269.419,290.903 267.245,284.229 256.062,287.888 249.317,267.217 
					242.835,269.332 262.632,330.086 				"/>
				<polygon points="320.601,369.321 274.678,384.289 270.387,371.121 263.895,373.238 268.185,386.407 270.355,393.068 
					276.849,390.946 322.779,375.978 329.267,373.867 325.429,362.094 318.935,364.217 				"/>
				
					<rect x="322.373" y="342.863" transform="matrix(0.9508 -0.3099 0.3099 0.9508 -93.1102 118.3162)" width="6.834" height="18.63"/>
				
					<rect x="231.614" y="341.37" transform="matrix(0.9509 -0.3094 0.3094 0.9509 -95.9405 89.5958)" width="5.697" height="11.723"/>
				
					<rect x="249.707" y="360.133" transform="matrix(0.9506 -0.3103 0.3103 0.9506 -101.1114 96.4464)" width="5.695" height="11.724"/>
				
					<rect x="257.64" y="369.694" transform="matrix(0.9508 -0.3097 0.3097 0.9508 -102.3779 98.9444)" width="5.692" height="4.539"/>
				<polygon points="243.526,330.735 249.534,349.152 256.023,347.031 231.862,272.908 225.368,275.03 242.119,326.418 
					236.709,328.18 238.109,332.504 				"/>
				<rect x="240.664" y="350.75" transform="matrix(0.9507 -0.31 0.31 0.9507 -98.5602 93.0642)" width="5.688" height="11.722"/>
				<polygon points="286.797,322.201 278.089,295.451 289.049,291.875 286.887,285.213 275.914,288.787 273.763,289.49 
					269.419,290.903 280.316,324.313 				"/>
				<polygon points="304.278,316.506 297.723,296.424 309.917,292.449 307.746,285.781 295.547,289.762 294.181,290.206 
					289.049,291.875 297.777,318.622 				"/>
				
					<rect x="317.866" y="290.102" transform="matrix(0.9508 -0.3099 0.3099 0.9508 -82.2026 115.1331)" width="6.822" height="52.39"/>
				<polygon points="236.709,328.18 234.534,321.518 224.189,324.884 219.001,326.584 217.695,327.01 223.446,344.658 
					229.941,342.541 226.36,331.549 				"/>
				
					<rect x="230.491" y="264.282" transform="matrix(0.9509 -0.3096 0.3096 0.9509 -71.2928 86.2929)" width="11.539" height="7.011"/>
			</g>
		</g>
	</g>
</g>
</svg>
